<svg xmlns="http://www.w3.org/2000/svg" xmlns:xlink="http://www.w3.org/1999/xlink" width="500" zoomAndPan="magnify" viewBox="0 0 375 374.999991" height="500" preserveAspectRatio="xMidYMid meet" version="1.2"><defs><clipPath id="e529a37814"><path d="M 301 177 L 360 177 L 360 216.5625 L 301 216.5625 Z M 301 177 "/></clipPath><clipPath id="2eb788d0f1"><path d="M 254 104.0625 L 299 104.0625 L 299 194 L 254 194 Z M 254 104.0625 "/></clipPath><clipPath id="27414004ba"><rect x="0" width="291" y="0" height="18"/></clipPath><clipPath id="4bbece277e"><rect x="0" width="297" y="0" height="51"/></clipPath><clipPath id="128aabd48b"><rect x="0" width="292" y="0" height="52"/></clipPath><clipPath id="f88daf1d84"><rect x="0" width="194" y="0" height="17"/></clipPath></defs><g id="ab8ce2bf34"><rect x="0" width="375" y="0" height="374.999991" style="fill:#ffffff;fill-opacity:1;stroke:none;"/><rect x="0" width="375" y="0" height="374.999991" style="fill:#ffffff;fill-opacity:1;stroke:none;"/><path style=" stroke:none;fill-rule:nonzero;fill:#000000;fill-opacity:1;" d="M 273.03125 198.058594 C 271.945312 197.195312 271.078125 196.546875 270.425781 195.894531 C 264.777344 190.703125 259.132812 185.945312 252.183594 182.703125 C 245.886719 179.890625 239.585938 179.023438 232.636719 179.890625 C 229.816406 180.320312 226.773438 180.105469 224.167969 179.242188 C 218.089844 177.292969 215.265625 171.667969 216.351562 165.398438 C 217.21875 159.773438 222.214844 155.445312 228.511719 155.015625 C 233.722656 154.582031 238.285156 156.09375 242.628906 158.476562 C 257.828125 166.695312 267.386719 179.890625 272.8125 196.113281 C 272.8125 196.546875 272.8125 196.976562 272.8125 198.058594 Z M 273.03125 198.058594 "/><g clip-rule="nonzero" clip-path="url(#e529a37814)"><path style=" stroke:none;fill-rule:nonzero;fill:#00adee;fill-opacity:1;" d="M 359.246094 195.464844 C 359.246094 196.546875 358.8125 197.410156 358.375 198.277344 C 355.988281 203.25 350.558594 206.496094 344.042969 206.0625 C 341.871094 206.0625 339.699219 205.628906 337.746094 205.199219 C 323.628906 202.386719 312.121094 207.359375 301.480469 216.230469 C 301.695312 209.523438 304.085938 203.46875 307.777344 198.492188 C 309.082031 196.976562 310.382812 195.464844 311.6875 194.164062 C 317.765625 188.109375 324.714844 183.132812 332.96875 179.890625 C 338.179688 177.726562 343.609375 176.859375 349.253906 178.589844 C 356.640625 180.972656 360.765625 188.109375 359.246094 195.464844 Z M 359.246094 195.464844 "/></g><path style=" stroke:none;fill-rule:nonzero;fill:#ec248f;fill-opacity:1;" d="M 324.933594 168.425781 C 324.066406 169.074219 323.195312 169.722656 322.328125 170.15625 C 310.601562 175.128906 303.652344 184.433594 298.222656 195.464844 C 297.570312 196.976562 296.703125 198.277344 296.050781 199.789062 C 296.050781 199.789062 295.617188 200.007812 294.964844 200.4375 C 295.832031 190.273438 298.4375 180.753906 302.347656 171.886719 C 304.519531 166.695312 307.34375 161.71875 310.382812 157.175781 C 313.640625 152.417969 319.722656 151.554688 324.066406 154.363281 C 329.058594 157.609375 329.710938 164.746094 324.933594 168.640625 Z M 324.933594 168.425781 "/><g clip-rule="nonzero" clip-path="url(#2eb788d0f1)"><path style=" stroke:none;fill-rule:nonzero;fill:#ffce03;fill-opacity:1;" d="M 298.222656 137.492188 C 298.003906 130.136719 296.703125 122.785156 292.792969 116.511719 C 288.449219 109.371094 282.585938 104.398438 273.898438 104.613281 C 273.464844 104.613281 273.03125 104.613281 272.378906 104.613281 C 256.308594 106.128906 248.925781 121.917969 257.828125 135.328125 C 260.652344 139.65625 263.910156 143.550781 267.167969 147.441406 C 273.03125 154.363281 277.15625 161.9375 279.546875 169.9375 C 281.71875 177.511719 282.367188 185.511719 281.5 193.949219 C 287.582031 187.460938 292.359375 178.808594 294.746094 169.074219 C 294.964844 167.992188 295.183594 166.910156 295.398438 165.828125 C 297.351562 156.527344 298.65625 147.226562 298.222656 137.710938 Z M 272.164062 115.644531 C 270.207031 117.375 268.253906 119.105469 266.082031 120.621094 C 265.429688 121.269531 263.910156 121.484375 263.257812 121.269531 C 262.390625 120.835938 261.957031 119.539062 261.519531 119.105469 C 261.519531 114.5625 267.820312 110.453125 271.292969 111.753906 C 273.03125 112.402344 273.464844 114.347656 271.945312 115.429688 Z M 277.808594 116.078125 C 276.289062 116.078125 275.203125 114.78125 275.203125 113.265625 C 275.203125 111.753906 276.289062 110.453125 277.808594 110.453125 C 279.328125 110.453125 280.414062 111.753906 280.414062 113.265625 C 280.414062 114.78125 279.328125 116.078125 277.808594 116.078125 Z M 277.808594 116.078125 "/></g><g transform="matrix(1,0,0,1,19,233)"><g clip-path="url(#27414004ba)"><g style="fill:#000000;fill-opacity:1;"><g transform="translate(1.091332, 14.100131)"><path style="stroke:none" d="M 0.59375 0 L 0.546875 -0.703125 L 1.375 -0.921875 C 1.394531 -0.960938 1.410156 -1.070312 1.421875 -1.25 C 1.429688 -1.4375 1.441406 -1.679688 1.453125 -1.984375 C 1.460938 -2.285156 1.46875 -2.625 1.46875 -3 L 1.484375 -5.25 C 1.484375 -5.601562 1.476562 -5.925781 1.46875 -6.21875 C 1.457031 -6.519531 1.445312 -6.769531 1.4375 -6.96875 C 1.425781 -7.164062 1.40625 -7.28125 1.375 -7.3125 L 0.5 -7.5 L 0.546875 -8.203125 L 4.09375 -8.203125 C 5.238281 -8.203125 6.09375 -7.992188 6.65625 -7.578125 C 7.21875 -7.160156 7.5 -6.566406 7.5 -5.796875 C 7.5 -5.285156 7.363281 -4.820312 7.09375 -4.40625 C 6.820312 -4 6.429688 -3.675781 5.921875 -3.4375 C 5.421875 -3.195312 4.8125 -3.078125 4.09375 -3.078125 C 3.9375 -3.078125 3.773438 -3.085938 3.609375 -3.109375 C 3.453125 -3.128906 3.304688 -3.15625 3.171875 -3.1875 L 3.171875 -4.140625 C 3.273438 -4.097656 3.40625 -4.0625 3.5625 -4.03125 C 3.71875 -4 3.894531 -3.984375 4.09375 -3.984375 C 4.539062 -3.984375 4.882812 -4.117188 5.125 -4.390625 C 5.363281 -4.671875 5.484375 -5.078125 5.484375 -5.609375 C 5.484375 -6.234375 5.328125 -6.6875 5.015625 -6.96875 C 4.710938 -7.257812 4.296875 -7.40625 3.765625 -7.40625 L 3.375 -7.40625 C 3.375 -7.332031 3.367188 -7.207031 3.359375 -7.03125 C 3.359375 -6.851562 3.351562 -6.617188 3.34375 -6.328125 C 3.34375 -6.035156 3.34375 -5.675781 3.34375 -5.25 L 3.359375 -3 C 3.359375 -2.625 3.363281 -2.285156 3.375 -1.984375 C 3.394531 -1.679688 3.410156 -1.4375 3.421875 -1.25 C 3.441406 -1.070312 3.457031 -0.96875 3.46875 -0.9375 L 4.59375 -0.71875 L 4.546875 0 Z M 0.59375 0 "/></g></g><g style="fill:#000000;fill-opacity:1;"><g transform="translate(20.483381, 14.100131)"><path style="stroke:none" d="M 0.53125 0 L 0.484375 -0.703125 L 1.375 -0.921875 C 1.382812 -0.960938 1.394531 -1.082031 1.40625 -1.28125 C 1.425781 -1.476562 1.441406 -1.734375 1.453125 -2.046875 C 1.460938 -2.359375 1.46875 -2.703125 1.46875 -3.078125 L 1.46875 -5.109375 C 1.46875 -5.503906 1.460938 -5.851562 1.453125 -6.15625 C 1.441406 -6.46875 1.425781 -6.722656 1.40625 -6.921875 C 1.394531 -7.128906 1.382812 -7.25 1.375 -7.28125 L 0.484375 -7.5 L 0.53125 -8.203125 L 4.28125 -8.203125 L 4.328125 -7.5 L 3.4375 -7.28125 C 3.414062 -7.238281 3.394531 -7.117188 3.375 -6.921875 C 3.363281 -6.722656 3.351562 -6.46875 3.34375 -6.15625 C 3.34375 -5.84375 3.34375 -5.492188 3.34375 -5.109375 L 3.34375 -3.078125 C 3.34375 -2.710938 3.34375 -2.375 3.34375 -2.0625 C 3.351562 -1.757812 3.363281 -1.503906 3.375 -1.296875 C 3.394531 -1.097656 3.414062 -0.972656 3.4375 -0.921875 L 4.328125 -0.703125 L 4.28125 0 Z M 0.53125 0 "/></g></g><g style="fill:#000000;fill-opacity:1;"><g transform="translate(36.747585, 14.100131)"><path style="stroke:none" d="M 5.21875 0.125 C 4.320312 0.125 3.523438 -0.0351562 2.828125 -0.359375 C 2.140625 -0.679688 1.601562 -1.144531 1.21875 -1.75 C 0.832031 -2.363281 0.640625 -3.101562 0.640625 -3.96875 C 0.640625 -4.632812 0.757812 -5.238281 1 -5.78125 C 1.238281 -6.320312 1.578125 -6.78125 2.015625 -7.15625 C 2.460938 -7.53125 2.984375 -7.816406 3.578125 -8.015625 C 4.171875 -8.222656 4.820312 -8.328125 5.53125 -8.328125 C 5.957031 -8.328125 6.382812 -8.28125 6.8125 -8.1875 C 7.238281 -8.101562 7.601562 -7.988281 7.90625 -7.84375 L 8 -5.703125 L 7.140625 -5.65625 L 6.640625 -7.125 C 6.460938 -7.21875 6.265625 -7.285156 6.046875 -7.328125 C 5.835938 -7.378906 5.625 -7.40625 5.40625 -7.40625 C 4.863281 -7.40625 4.40625 -7.273438 4.03125 -7.015625 C 3.65625 -6.765625 3.367188 -6.40625 3.171875 -5.9375 C 2.984375 -5.476562 2.890625 -4.929688 2.890625 -4.296875 C 2.890625 -3.578125 3.007812 -2.957031 3.25 -2.4375 C 3.488281 -1.925781 3.804688 -1.53125 4.203125 -1.25 C 4.597656 -0.976562 5.046875 -0.84375 5.546875 -0.84375 C 5.804688 -0.84375 6.054688 -0.875 6.296875 -0.9375 C 6.546875 -1.007812 6.753906 -1.113281 6.921875 -1.25 L 7.421875 -2.546875 L 8.359375 -2.4375 L 7.953125 -0.59375 C 7.671875 -0.40625 7.28125 -0.238281 6.78125 -0.09375 C 6.28125 0.0507812 5.757812 0.125 5.21875 0.125 Z M 5.21875 0.125 "/></g></g><g style="fill:#000000;fill-opacity:1;"><g transform="translate(56.879705, 14.100131)"><path style="stroke:none" d="M 8 -8.265625 L 8.328125 -5.796875 L 7.453125 -5.71875 L 6.890625 -7.328125 C 6.796875 -7.347656 6.695312 -7.359375 6.59375 -7.359375 C 6.5 -7.367188 6.390625 -7.375 6.265625 -7.375 L 5.796875 -7.375 C 5.710938 -7.375 5.613281 -7.375 5.5 -7.375 C 5.394531 -7.375 5.316406 -7.363281 5.265625 -7.34375 C 5.265625 -7.289062 5.257812 -7.117188 5.25 -6.828125 C 5.25 -6.535156 5.242188 -6.1875 5.234375 -5.78125 C 5.234375 -5.382812 5.234375 -4.984375 5.234375 -4.578125 L 5.234375 -3.28125 C 5.234375 -2.757812 5.238281 -2.289062 5.25 -1.875 C 5.257812 -1.457031 5.269531 -1.140625 5.28125 -0.921875 L 6.5 -0.71875 L 6.453125 0 L 2.109375 0 L 2.0625 -0.71875 L 3.28125 -0.921875 C 3.289062 -1.140625 3.300781 -1.457031 3.3125 -1.875 C 3.320312 -2.289062 3.328125 -2.757812 3.328125 -3.28125 L 3.328125 -4.578125 C 3.328125 -4.984375 3.320312 -5.382812 3.3125 -5.78125 C 3.3125 -6.1875 3.3125 -6.535156 3.3125 -6.828125 C 3.3125 -7.117188 3.304688 -7.289062 3.296875 -7.34375 C 3.242188 -7.363281 3.160156 -7.375 3.046875 -7.375 C 2.941406 -7.375 2.847656 -7.375 2.765625 -7.375 L 2.28125 -7.375 C 2.164062 -7.375 2.050781 -7.367188 1.9375 -7.359375 C 1.820312 -7.359375 1.71875 -7.347656 1.625 -7.328125 L 1.09375 -5.703125 L 0.21875 -5.78125 L 0.515625 -8.265625 C 0.609375 -8.265625 0.738281 -8.257812 0.90625 -8.25 C 1.082031 -8.238281 1.265625 -8.226562 1.453125 -8.21875 C 1.648438 -8.207031 1.835938 -8.203125 2.015625 -8.203125 C 2.203125 -8.203125 2.359375 -8.203125 2.484375 -8.203125 L 6.03125 -8.203125 C 6.164062 -8.203125 6.316406 -8.203125 6.484375 -8.203125 C 6.660156 -8.203125 6.847656 -8.207031 7.046875 -8.21875 C 7.242188 -8.226562 7.425781 -8.238281 7.59375 -8.25 C 7.757812 -8.257812 7.894531 -8.265625 8 -8.265625 Z M 8 -8.265625 "/></g></g><g style="fill:#000000;fill-opacity:1;"><g transform="translate(76.886153, 14.100131)"><path style="stroke:none" d="M 0.5 -8.203125 L 4.25 -8.203125 L 4.28125 -7.5 L 3.390625 -7.265625 C 3.378906 -7.171875 3.367188 -7.019531 3.359375 -6.8125 C 3.347656 -6.613281 3.335938 -6.375 3.328125 -6.09375 C 3.328125 -5.8125 3.328125 -5.484375 3.328125 -5.109375 L 3.328125 -3.671875 C 3.328125 -3.128906 3.398438 -2.671875 3.546875 -2.296875 C 3.703125 -1.929688 3.925781 -1.65625 4.21875 -1.46875 C 4.519531 -1.28125 4.882812 -1.1875 5.3125 -1.1875 C 5.75 -1.1875 6.109375 -1.273438 6.390625 -1.453125 C 6.671875 -1.640625 6.878906 -1.914062 7.015625 -2.28125 C 7.160156 -2.65625 7.234375 -3.125 7.234375 -3.6875 L 7.234375 -4.859375 C 7.234375 -5.285156 7.226562 -5.675781 7.21875 -6.03125 C 7.207031 -6.382812 7.191406 -6.671875 7.171875 -6.890625 C 7.160156 -7.109375 7.148438 -7.234375 7.140625 -7.265625 L 6.15625 -7.5 L 6.203125 -8.203125 L 9.3125 -8.203125 L 9.359375 -7.5 L 8.453125 -7.265625 C 8.453125 -7.234375 8.441406 -7.109375 8.421875 -6.890625 C 8.410156 -6.671875 8.398438 -6.382812 8.390625 -6.03125 C 8.378906 -5.675781 8.375 -5.285156 8.375 -4.859375 L 8.375 -3.453125 C 8.375 -2.710938 8.238281 -2.070312 7.96875 -1.53125 C 7.695312 -1 7.3125 -0.585938 6.8125 -0.296875 C 6.320312 -0.015625 5.734375 0.125 5.046875 0.125 C 3.890625 0.125 2.992188 -0.179688 2.359375 -0.796875 C 1.734375 -1.421875 1.421875 -2.300781 1.421875 -3.4375 L 1.421875 -5.109375 C 1.421875 -5.503906 1.414062 -5.859375 1.40625 -6.171875 C 1.394531 -6.484375 1.382812 -6.734375 1.375 -6.921875 C 1.375 -7.117188 1.367188 -7.234375 1.359375 -7.265625 L 0.453125 -7.5 Z M 0.5 -8.203125 "/></g></g><g style="fill:#000000;fill-opacity:1;"><g transform="translate(98.13536, 14.100131)"><path style="stroke:none" d="M 0.59375 0 L 0.546875 -0.703125 L 1.4375 -0.9375 C 1.4375 -0.988281 1.4375 -1.09375 1.4375 -1.25 C 1.445312 -1.414062 1.453125 -1.601562 1.453125 -1.8125 C 1.460938 -2.03125 1.46875 -2.25 1.46875 -2.46875 C 1.476562 -2.695312 1.484375 -2.898438 1.484375 -3.078125 L 1.484375 -5.109375 C 1.484375 -5.503906 1.476562 -5.851562 1.46875 -6.15625 C 1.457031 -6.46875 1.441406 -6.722656 1.421875 -6.921875 C 1.410156 -7.117188 1.394531 -7.238281 1.375 -7.28125 L 0.484375 -7.5 L 0.53125 -8.203125 L 4.140625 -8.203125 C 5.210938 -8.203125 6.003906 -8.03125 6.515625 -7.6875 C 7.023438 -7.34375 7.28125 -6.804688 7.28125 -6.078125 C 7.28125 -5.617188 7.140625 -5.207031 6.859375 -4.84375 C 6.585938 -4.488281 6.207031 -4.207031 5.71875 -4 C 5.226562 -3.800781 4.664062 -3.703125 4.03125 -3.703125 L 3.125 -3.703125 L 3.125 -4.515625 L 3.75 -4.515625 C 4.21875 -4.515625 4.59375 -4.65625 4.875 -4.9375 C 5.164062 -5.21875 5.3125 -5.597656 5.3125 -6.078125 C 5.3125 -6.515625 5.191406 -6.84375 4.953125 -7.0625 C 4.710938 -7.289062 4.363281 -7.40625 3.90625 -7.40625 L 3.375 -7.40625 C 3.363281 -7.382812 3.351562 -7.304688 3.34375 -7.171875 C 3.34375 -7.046875 3.34375 -6.878906 3.34375 -6.671875 C 3.34375 -6.472656 3.34375 -6.25 3.34375 -6 C 3.34375 -5.757812 3.34375 -5.5 3.34375 -5.21875 L 3.34375 -3.078125 C 3.34375 -2.828125 3.34375 -2.554688 3.34375 -2.265625 C 3.351562 -1.984375 3.363281 -1.71875 3.375 -1.46875 C 3.382812 -1.226562 3.394531 -1.050781 3.40625 -0.9375 L 4.1875 -0.703125 L 4.140625 0 Z M 7.875 0.171875 C 7.351562 0.171875 6.890625 0.0859375 6.484375 -0.078125 C 6.078125 -0.242188 5.710938 -0.503906 5.390625 -0.859375 C 5.078125 -1.210938 4.789062 -1.660156 4.53125 -2.203125 L 3.734375 -3.921875 L 5.296875 -4.28125 L 6.953125 -1.96875 C 7.148438 -1.695312 7.335938 -1.46875 7.515625 -1.28125 C 7.703125 -1.09375 7.898438 -0.941406 8.109375 -0.828125 C 8.316406 -0.710938 8.535156 -0.625 8.765625 -0.5625 L 8.75 0.078125 C 8.601562 0.109375 8.457031 0.128906 8.3125 0.140625 C 8.164062 0.160156 8.019531 0.171875 7.875 0.171875 Z M 7.875 0.171875 "/></g></g><g style="fill:#000000;fill-opacity:1;"><g transform="translate(118.309371, 14.100131)"><path style="stroke:none" d="M 7.265625 0.078125 C 7.003906 0.0664062 6.6875 0.0507812 6.3125 0.03125 C 5.945312 0.0078125 5.613281 0 5.3125 0 L 0.515625 0 L 0.46875 -0.703125 L 1.375 -0.921875 C 1.382812 -0.960938 1.394531 -1.082031 1.40625 -1.28125 C 1.425781 -1.476562 1.441406 -1.734375 1.453125 -2.046875 C 1.460938 -2.359375 1.46875 -2.703125 1.46875 -3.078125 L 1.46875 -5.109375 C 1.46875 -5.503906 1.460938 -5.851562 1.453125 -6.15625 C 1.441406 -6.46875 1.425781 -6.722656 1.40625 -6.921875 C 1.394531 -7.117188 1.382812 -7.238281 1.375 -7.28125 L 0.46875 -7.5 L 0.515625 -8.203125 L 4.8125 -8.203125 C 5 -8.203125 5.222656 -8.203125 5.484375 -8.203125 C 5.753906 -8.203125 6.015625 -8.207031 6.265625 -8.21875 C 6.523438 -8.238281 6.742188 -8.253906 6.921875 -8.265625 L 7.296875 -6.203125 L 6.5 -6.09375 L 5.96875 -7.3125 C 5.851562 -7.34375 5.742188 -7.363281 5.640625 -7.375 C 5.546875 -7.382812 5.441406 -7.390625 5.328125 -7.390625 L 4.265625 -7.390625 C 4.085938 -7.390625 3.914062 -7.382812 3.75 -7.375 C 3.59375 -7.375 3.460938 -7.363281 3.359375 -7.34375 C 3.359375 -7.269531 3.351562 -7.15625 3.34375 -7 C 3.34375 -6.851562 3.34375 -6.664062 3.34375 -6.4375 C 3.34375 -6.207031 3.34375 -5.929688 3.34375 -5.609375 L 3.34375 -2.6875 C 3.34375 -2.382812 3.34375 -2.113281 3.34375 -1.875 C 3.34375 -1.644531 3.34375 -1.453125 3.34375 -1.296875 C 3.351562 -1.148438 3.359375 -1.035156 3.359375 -0.953125 C 3.523438 -0.921875 3.703125 -0.898438 3.890625 -0.890625 C 4.078125 -0.878906 4.3125 -0.875 4.59375 -0.875 L 5.328125 -0.875 C 5.578125 -0.875 5.757812 -0.875 5.875 -0.875 C 5.988281 -0.882812 6.078125 -0.894531 6.140625 -0.90625 C 6.203125 -0.914062 6.265625 -0.925781 6.328125 -0.9375 L 7.09375 -2.328125 L 7.890625 -2.171875 Z M 5.484375 -2.796875 L 5.34375 -3.734375 C 5.28125 -3.734375 5.175781 -3.734375 5.03125 -3.734375 C 4.894531 -3.742188 4.734375 -3.75 4.546875 -3.75 L 3.8125 -3.75 C 3.65625 -3.75 3.503906 -3.742188 3.359375 -3.734375 C 3.210938 -3.734375 3.101562 -3.726562 3.03125 -3.71875 L 3.03125 -4.703125 C 3.101562 -4.691406 3.210938 -4.679688 3.359375 -4.671875 C 3.503906 -4.660156 3.65625 -4.65625 3.8125 -4.65625 L 4.546875 -4.65625 C 4.734375 -4.65625 4.894531 -4.65625 5.03125 -4.65625 C 5.175781 -4.664062 5.28125 -4.671875 5.34375 -4.671875 L 5.484375 -5.609375 L 6.25 -5.609375 L 6.25 -2.796875 Z M 5.484375 -2.796875 "/></g></g><g style="fill:#000000;fill-opacity:1;"><g transform="translate(137.882948, 14.100131)"><path style="stroke:none" d=""/></g></g><g style="fill:#000000;fill-opacity:1;"><g transform="translate(152.080539, 14.100131)"><path style="stroke:none" d="M 0.59375 0 L 0.546875 -0.703125 L 1.375 -0.921875 C 1.394531 -0.960938 1.410156 -1.070312 1.421875 -1.25 C 1.429688 -1.4375 1.441406 -1.679688 1.453125 -1.984375 C 1.460938 -2.285156 1.46875 -2.625 1.46875 -3 L 1.484375 -5.25 C 1.484375 -5.601562 1.476562 -5.925781 1.46875 -6.21875 C 1.457031 -6.519531 1.445312 -6.769531 1.4375 -6.96875 C 1.425781 -7.164062 1.40625 -7.28125 1.375 -7.3125 L 0.5 -7.5 L 0.546875 -8.203125 L 4.09375 -8.203125 C 5.238281 -8.203125 6.09375 -7.992188 6.65625 -7.578125 C 7.21875 -7.160156 7.5 -6.566406 7.5 -5.796875 C 7.5 -5.285156 7.363281 -4.820312 7.09375 -4.40625 C 6.820312 -4 6.429688 -3.675781 5.921875 -3.4375 C 5.421875 -3.195312 4.8125 -3.078125 4.09375 -3.078125 C 3.9375 -3.078125 3.773438 -3.085938 3.609375 -3.109375 C 3.453125 -3.128906 3.304688 -3.15625 3.171875 -3.1875 L 3.171875 -4.140625 C 3.273438 -4.097656 3.40625 -4.0625 3.5625 -4.03125 C 3.71875 -4 3.894531 -3.984375 4.09375 -3.984375 C 4.539062 -3.984375 4.882812 -4.117188 5.125 -4.390625 C 5.363281 -4.671875 5.484375 -5.078125 5.484375 -5.609375 C 5.484375 -6.234375 5.328125 -6.6875 5.015625 -6.96875 C 4.710938 -7.257812 4.296875 -7.40625 3.765625 -7.40625 L 3.375 -7.40625 C 3.375 -7.332031 3.367188 -7.207031 3.359375 -7.03125 C 3.359375 -6.851562 3.351562 -6.617188 3.34375 -6.328125 C 3.34375 -6.035156 3.34375 -5.675781 3.34375 -5.25 L 3.359375 -3 C 3.359375 -2.625 3.363281 -2.285156 3.375 -1.984375 C 3.394531 -1.679688 3.410156 -1.4375 3.421875 -1.25 C 3.441406 -1.070312 3.457031 -0.96875 3.46875 -0.9375 L 4.59375 -0.71875 L 4.546875 0 Z M 0.59375 0 "/></g></g><g style="fill:#000000;fill-opacity:1;"><g transform="translate(171.472589, 14.100131)"><path style="stroke:none" d="M 7.265625 0.078125 C 7.003906 0.0664062 6.6875 0.0507812 6.3125 0.03125 C 5.945312 0.0078125 5.613281 0 5.3125 0 L 0.515625 0 L 0.46875 -0.703125 L 1.375 -0.921875 C 1.382812 -0.960938 1.394531 -1.082031 1.40625 -1.28125 C 1.425781 -1.476562 1.441406 -1.734375 1.453125 -2.046875 C 1.460938 -2.359375 1.46875 -2.703125 1.46875 -3.078125 L 1.46875 -5.109375 C 1.46875 -5.503906 1.460938 -5.851562 1.453125 -6.15625 C 1.441406 -6.46875 1.425781 -6.722656 1.40625 -6.921875 C 1.394531 -7.117188 1.382812 -7.238281 1.375 -7.28125 L 0.46875 -7.5 L 0.515625 -8.203125 L 4.8125 -8.203125 C 5 -8.203125 5.222656 -8.203125 5.484375 -8.203125 C 5.753906 -8.203125 6.015625 -8.207031 6.265625 -8.21875 C 6.523438 -8.238281 6.742188 -8.253906 6.921875 -8.265625 L 7.296875 -6.203125 L 6.5 -6.09375 L 5.96875 -7.3125 C 5.851562 -7.34375 5.742188 -7.363281 5.640625 -7.375 C 5.546875 -7.382812 5.441406 -7.390625 5.328125 -7.390625 L 4.265625 -7.390625 C 4.085938 -7.390625 3.914062 -7.382812 3.75 -7.375 C 3.59375 -7.375 3.460938 -7.363281 3.359375 -7.34375 C 3.359375 -7.269531 3.351562 -7.15625 3.34375 -7 C 3.34375 -6.851562 3.34375 -6.664062 3.34375 -6.4375 C 3.34375 -6.207031 3.34375 -5.929688 3.34375 -5.609375 L 3.34375 -2.6875 C 3.34375 -2.382812 3.34375 -2.113281 3.34375 -1.875 C 3.34375 -1.644531 3.34375 -1.453125 3.34375 -1.296875 C 3.351562 -1.148438 3.359375 -1.035156 3.359375 -0.953125 C 3.523438 -0.921875 3.703125 -0.898438 3.890625 -0.890625 C 4.078125 -0.878906 4.3125 -0.875 4.59375 -0.875 L 5.328125 -0.875 C 5.578125 -0.875 5.757812 -0.875 5.875 -0.875 C 5.988281 -0.882812 6.078125 -0.894531 6.140625 -0.90625 C 6.203125 -0.914062 6.265625 -0.925781 6.328125 -0.9375 L 7.09375 -2.328125 L 7.890625 -2.171875 Z M 5.484375 -2.796875 L 5.34375 -3.734375 C 5.28125 -3.734375 5.175781 -3.734375 5.03125 -3.734375 C 4.894531 -3.742188 4.734375 -3.75 4.546875 -3.75 L 3.8125 -3.75 C 3.65625 -3.75 3.503906 -3.742188 3.359375 -3.734375 C 3.210938 -3.734375 3.101562 -3.726562 3.03125 -3.71875 L 3.03125 -4.703125 C 3.101562 -4.691406 3.210938 -4.679688 3.359375 -4.671875 C 3.503906 -4.660156 3.65625 -4.65625 3.8125 -4.65625 L 4.546875 -4.65625 C 4.734375 -4.65625 4.894531 -4.65625 5.03125 -4.65625 C 5.175781 -4.664062 5.28125 -4.671875 5.34375 -4.671875 L 5.484375 -5.609375 L 6.25 -5.609375 L 6.25 -2.796875 Z M 5.484375 -2.796875 "/></g></g><g style="fill:#000000;fill-opacity:1;"><g transform="translate(191.046165, 14.100131)"><path style="stroke:none" d="M 0.59375 0 L 0.546875 -0.703125 L 1.4375 -0.9375 C 1.4375 -0.988281 1.4375 -1.09375 1.4375 -1.25 C 1.445312 -1.414062 1.453125 -1.601562 1.453125 -1.8125 C 1.460938 -2.03125 1.46875 -2.25 1.46875 -2.46875 C 1.476562 -2.695312 1.484375 -2.898438 1.484375 -3.078125 L 1.484375 -5.109375 C 1.484375 -5.503906 1.476562 -5.851562 1.46875 -6.15625 C 1.457031 -6.46875 1.441406 -6.722656 1.421875 -6.921875 C 1.410156 -7.117188 1.394531 -7.238281 1.375 -7.28125 L 0.484375 -7.5 L 0.53125 -8.203125 L 4.140625 -8.203125 C 5.210938 -8.203125 6.003906 -8.03125 6.515625 -7.6875 C 7.023438 -7.34375 7.28125 -6.804688 7.28125 -6.078125 C 7.28125 -5.617188 7.140625 -5.207031 6.859375 -4.84375 C 6.585938 -4.488281 6.207031 -4.207031 5.71875 -4 C 5.226562 -3.800781 4.664062 -3.703125 4.03125 -3.703125 L 3.125 -3.703125 L 3.125 -4.515625 L 3.75 -4.515625 C 4.21875 -4.515625 4.59375 -4.65625 4.875 -4.9375 C 5.164062 -5.21875 5.3125 -5.597656 5.3125 -6.078125 C 5.3125 -6.515625 5.191406 -6.84375 4.953125 -7.0625 C 4.710938 -7.289062 4.363281 -7.40625 3.90625 -7.40625 L 3.375 -7.40625 C 3.363281 -7.382812 3.351562 -7.304688 3.34375 -7.171875 C 3.34375 -7.046875 3.34375 -6.878906 3.34375 -6.671875 C 3.34375 -6.472656 3.34375 -6.25 3.34375 -6 C 3.34375 -5.757812 3.34375 -5.5 3.34375 -5.21875 L 3.34375 -3.078125 C 3.34375 -2.828125 3.34375 -2.554688 3.34375 -2.265625 C 3.351562 -1.984375 3.363281 -1.71875 3.375 -1.46875 C 3.382812 -1.226562 3.394531 -1.050781 3.40625 -0.9375 L 4.1875 -0.703125 L 4.140625 0 Z M 7.875 0.171875 C 7.351562 0.171875 6.890625 0.0859375 6.484375 -0.078125 C 6.078125 -0.242188 5.710938 -0.503906 5.390625 -0.859375 C 5.078125 -1.210938 4.789062 -1.660156 4.53125 -2.203125 L 3.734375 -3.921875 L 5.296875 -4.28125 L 6.953125 -1.96875 C 7.148438 -1.695312 7.335938 -1.46875 7.515625 -1.28125 C 7.703125 -1.09375 7.898438 -0.941406 8.109375 -0.828125 C 8.316406 -0.710938 8.535156 -0.625 8.765625 -0.5625 L 8.75 0.078125 C 8.601562 0.109375 8.457031 0.128906 8.3125 0.140625 C 8.164062 0.160156 8.019531 0.171875 7.875 0.171875 Z M 7.875 0.171875 "/></g></g><g style="fill:#000000;fill-opacity:1;"><g transform="translate(211.220176, 14.100131)"><path style="stroke:none" d="M 0.59375 0 L 0.546875 -0.703125 L 1.375 -0.921875 C 1.394531 -0.960938 1.410156 -1.078125 1.421875 -1.265625 C 1.429688 -1.460938 1.441406 -1.71875 1.453125 -2.03125 C 1.460938 -2.34375 1.46875 -2.691406 1.46875 -3.078125 L 1.484375 -5.125 C 1.484375 -5.507812 1.476562 -5.859375 1.46875 -6.171875 C 1.457031 -6.484375 1.445312 -6.734375 1.4375 -6.921875 C 1.425781 -7.117188 1.410156 -7.234375 1.390625 -7.265625 L 0.515625 -7.5 L 0.5625 -8.203125 L 4.71875 -8.203125 C 4.914062 -8.203125 5.148438 -8.203125 5.421875 -8.203125 C 5.691406 -8.203125 5.957031 -8.207031 6.21875 -8.21875 C 6.476562 -8.238281 6.6875 -8.253906 6.84375 -8.265625 L 7.234375 -6.203125 L 6.421875 -6.09375 L 5.875 -7.3125 C 5.757812 -7.34375 5.65625 -7.363281 5.5625 -7.375 C 5.46875 -7.382812 5.363281 -7.390625 5.25 -7.390625 L 4.203125 -7.390625 C 4.046875 -7.390625 3.890625 -7.378906 3.734375 -7.359375 C 3.578125 -7.347656 3.445312 -7.332031 3.34375 -7.3125 C 3.34375 -7.269531 3.34375 -7.21875 3.34375 -7.15625 C 3.34375 -7.09375 3.34375 -7.003906 3.34375 -6.890625 C 3.34375 -6.785156 3.34375 -6.628906 3.34375 -6.421875 C 3.34375 -6.210938 3.34375 -5.941406 3.34375 -5.609375 L 3.34375 -2.390625 C 3.34375 -2.210938 3.347656 -2.015625 3.359375 -1.796875 C 3.367188 -1.585938 3.378906 -1.398438 3.390625 -1.234375 C 3.410156 -1.066406 3.425781 -0.960938 3.4375 -0.921875 L 4.5625 -0.71875 L 4.53125 0 Z M 5.375 -2.640625 L 5.234375 -3.625 C 5.117188 -3.644531 4.992188 -3.660156 4.859375 -3.671875 C 4.722656 -3.679688 4.582031 -3.6875 4.4375 -3.6875 L 3.640625 -3.6875 C 3.472656 -3.6875 3.320312 -3.675781 3.1875 -3.65625 C 3.050781 -3.644531 2.925781 -3.632812 2.8125 -3.625 L 2.8125 -4.625 C 2.914062 -4.613281 3.039062 -4.601562 3.1875 -4.59375 C 3.332031 -4.582031 3.484375 -4.578125 3.640625 -4.578125 L 4.4375 -4.578125 C 4.625 -4.578125 4.789062 -4.582031 4.9375 -4.59375 C 5.082031 -4.601562 5.179688 -4.609375 5.234375 -4.609375 L 5.375 -5.53125 L 6.1875 -5.53125 L 6.1875 -2.640625 Z M 5.375 -2.640625 "/></g></g><g style="fill:#000000;fill-opacity:1;"><g transform="translate(230.193317, 14.100131)"><path style="stroke:none" d="M 7.265625 0.078125 C 7.003906 0.0664062 6.6875 0.0507812 6.3125 0.03125 C 5.945312 0.0078125 5.613281 0 5.3125 0 L 0.515625 0 L 0.46875 -0.703125 L 1.375 -0.921875 C 1.382812 -0.960938 1.394531 -1.082031 1.40625 -1.28125 C 1.425781 -1.476562 1.441406 -1.734375 1.453125 -2.046875 C 1.460938 -2.359375 1.46875 -2.703125 1.46875 -3.078125 L 1.46875 -5.109375 C 1.46875 -5.503906 1.460938 -5.851562 1.453125 -6.15625 C 1.441406 -6.46875 1.425781 -6.722656 1.40625 -6.921875 C 1.394531 -7.117188 1.382812 -7.238281 1.375 -7.28125 L 0.46875 -7.5 L 0.515625 -8.203125 L 4.8125 -8.203125 C 5 -8.203125 5.222656 -8.203125 5.484375 -8.203125 C 5.753906 -8.203125 6.015625 -8.207031 6.265625 -8.21875 C 6.523438 -8.238281 6.742188 -8.253906 6.921875 -8.265625 L 7.296875 -6.203125 L 6.5 -6.09375 L 5.96875 -7.3125 C 5.851562 -7.34375 5.742188 -7.363281 5.640625 -7.375 C 5.546875 -7.382812 5.441406 -7.390625 5.328125 -7.390625 L 4.265625 -7.390625 C 4.085938 -7.390625 3.914062 -7.382812 3.75 -7.375 C 3.59375 -7.375 3.460938 -7.363281 3.359375 -7.34375 C 3.359375 -7.269531 3.351562 -7.15625 3.34375 -7 C 3.34375 -6.851562 3.34375 -6.664062 3.34375 -6.4375 C 3.34375 -6.207031 3.34375 -5.929688 3.34375 -5.609375 L 3.34375 -2.6875 C 3.34375 -2.382812 3.34375 -2.113281 3.34375 -1.875 C 3.34375 -1.644531 3.34375 -1.453125 3.34375 -1.296875 C 3.351562 -1.148438 3.359375 -1.035156 3.359375 -0.953125 C 3.523438 -0.921875 3.703125 -0.898438 3.890625 -0.890625 C 4.078125 -0.878906 4.3125 -0.875 4.59375 -0.875 L 5.328125 -0.875 C 5.578125 -0.875 5.757812 -0.875 5.875 -0.875 C 5.988281 -0.882812 6.078125 -0.894531 6.140625 -0.90625 C 6.203125 -0.914062 6.265625 -0.925781 6.328125 -0.9375 L 7.09375 -2.328125 L 7.890625 -2.171875 Z M 5.484375 -2.796875 L 5.34375 -3.734375 C 5.28125 -3.734375 5.175781 -3.734375 5.03125 -3.734375 C 4.894531 -3.742188 4.734375 -3.75 4.546875 -3.75 L 3.8125 -3.75 C 3.65625 -3.75 3.503906 -3.742188 3.359375 -3.734375 C 3.210938 -3.734375 3.101562 -3.726562 3.03125 -3.71875 L 3.03125 -4.703125 C 3.101562 -4.691406 3.210938 -4.679688 3.359375 -4.671875 C 3.503906 -4.660156 3.65625 -4.65625 3.8125 -4.65625 L 4.546875 -4.65625 C 4.734375 -4.65625 4.894531 -4.65625 5.03125 -4.65625 C 5.175781 -4.664062 5.28125 -4.671875 5.34375 -4.671875 L 5.484375 -5.609375 L 6.25 -5.609375 L 6.25 -2.796875 Z M 5.484375 -2.796875 "/></g></g><g style="fill:#000000;fill-opacity:1;"><g transform="translate(249.697059, 14.100131)"><path style="stroke:none" d="M 5.21875 0.125 C 4.320312 0.125 3.523438 -0.0351562 2.828125 -0.359375 C 2.140625 -0.679688 1.601562 -1.144531 1.21875 -1.75 C 0.832031 -2.363281 0.640625 -3.101562 0.640625 -3.96875 C 0.640625 -4.632812 0.757812 -5.238281 1 -5.78125 C 1.238281 -6.320312 1.578125 -6.78125 2.015625 -7.15625 C 2.460938 -7.53125 2.984375 -7.816406 3.578125 -8.015625 C 4.171875 -8.222656 4.820312 -8.328125 5.53125 -8.328125 C 5.957031 -8.328125 6.382812 -8.28125 6.8125 -8.1875 C 7.238281 -8.101562 7.601562 -7.988281 7.90625 -7.84375 L 8 -5.703125 L 7.140625 -5.65625 L 6.640625 -7.125 C 6.460938 -7.21875 6.265625 -7.285156 6.046875 -7.328125 C 5.835938 -7.378906 5.625 -7.40625 5.40625 -7.40625 C 4.863281 -7.40625 4.40625 -7.273438 4.03125 -7.015625 C 3.65625 -6.765625 3.367188 -6.40625 3.171875 -5.9375 C 2.984375 -5.476562 2.890625 -4.929688 2.890625 -4.296875 C 2.890625 -3.578125 3.007812 -2.957031 3.25 -2.4375 C 3.488281 -1.925781 3.804688 -1.53125 4.203125 -1.25 C 4.597656 -0.976562 5.046875 -0.84375 5.546875 -0.84375 C 5.804688 -0.84375 6.054688 -0.875 6.296875 -0.9375 C 6.546875 -1.007812 6.753906 -1.113281 6.921875 -1.25 L 7.421875 -2.546875 L 8.359375 -2.4375 L 7.953125 -0.59375 C 7.671875 -0.40625 7.28125 -0.238281 6.78125 -0.09375 C 6.28125 0.0507812 5.757812 0.125 5.21875 0.125 Z M 5.21875 0.125 "/></g></g><g style="fill:#000000;fill-opacity:1;"><g transform="translate(269.82918, 14.100131)"><path style="stroke:none" d="M 8 -8.265625 L 8.328125 -5.796875 L 7.453125 -5.71875 L 6.890625 -7.328125 C 6.796875 -7.347656 6.695312 -7.359375 6.59375 -7.359375 C 6.5 -7.367188 6.390625 -7.375 6.265625 -7.375 L 5.796875 -7.375 C 5.710938 -7.375 5.613281 -7.375 5.5 -7.375 C 5.394531 -7.375 5.316406 -7.363281 5.265625 -7.34375 C 5.265625 -7.289062 5.257812 -7.117188 5.25 -6.828125 C 5.25 -6.535156 5.242188 -6.1875 5.234375 -5.78125 C 5.234375 -5.382812 5.234375 -4.984375 5.234375 -4.578125 L 5.234375 -3.28125 C 5.234375 -2.757812 5.238281 -2.289062 5.25 -1.875 C 5.257812 -1.457031 5.269531 -1.140625 5.28125 -0.921875 L 6.5 -0.71875 L 6.453125 0 L 2.109375 0 L 2.0625 -0.71875 L 3.28125 -0.921875 C 3.289062 -1.140625 3.300781 -1.457031 3.3125 -1.875 C 3.320312 -2.289062 3.328125 -2.757812 3.328125 -3.28125 L 3.328125 -4.578125 C 3.328125 -4.984375 3.320312 -5.382812 3.3125 -5.78125 C 3.3125 -6.1875 3.3125 -6.535156 3.3125 -6.828125 C 3.3125 -7.117188 3.304688 -7.289062 3.296875 -7.34375 C 3.242188 -7.363281 3.160156 -7.375 3.046875 -7.375 C 2.941406 -7.375 2.847656 -7.375 2.765625 -7.375 L 2.28125 -7.375 C 2.164062 -7.375 2.050781 -7.367188 1.9375 -7.359375 C 1.820312 -7.359375 1.71875 -7.347656 1.625 -7.328125 L 1.09375 -5.703125 L 0.21875 -5.78125 L 0.515625 -8.265625 C 0.609375 -8.265625 0.738281 -8.257812 0.90625 -8.25 C 1.082031 -8.238281 1.265625 -8.226562 1.453125 -8.21875 C 1.648438 -8.207031 1.835938 -8.203125 2.015625 -8.203125 C 2.203125 -8.203125 2.359375 -8.203125 2.484375 -8.203125 L 6.03125 -8.203125 C 6.164062 -8.203125 6.316406 -8.203125 6.484375 -8.203125 C 6.660156 -8.203125 6.847656 -8.207031 7.046875 -8.21875 C 7.242188 -8.226562 7.425781 -8.238281 7.59375 -8.25 C 7.757812 -8.257812 7.894531 -8.265625 8 -8.265625 Z M 8 -8.265625 "/></g></g></g></g><g transform="matrix(1,0,0,1,15,185)"><g clip-path="url(#4bbece277e)"><g style="fill:#ffffff;fill-opacity:1;"><g transform="translate(3.218516, 39.666471)"><path style="stroke:none" d="M 27.746094 -6.132812 L 27.746094 2.40625 L 0.398438 2.40625 L 0.398438 -30.472656 L 27.226562 -30.472656 L 27.226562 -19.523438 L 10.664062 -19.523438 L 10.664062 -21.929688 L 13.070312 -21.929688 L 13.070312 -17.199219 L 10.664062 -17.199219 L 10.664062 -19.605469 L 25.539062 -19.605469 L 25.539062 -8.859375 L 10.664062 -8.859375 L 10.664062 -11.265625 L 13.070312 -11.265625 L 13.070312 -6.132812 L 10.664062 -6.132812 L 10.664062 -8.542969 L 27.746094 -8.542969 Z M 22.933594 -6.132812 L 25.339844 -6.132812 L 25.339844 -3.726562 L 8.257812 -3.726562 L 8.257812 -13.671875 L 23.132812 -13.671875 L 23.132812 -11.265625 L 20.726562 -11.265625 L 20.726562 -17.199219 L 23.132812 -17.199219 L 23.132812 -14.792969 L 8.257812 -14.792969 L 8.257812 -24.339844 L 24.816406 -24.339844 L 24.816406 -21.929688 L 22.410156 -21.929688 L 22.410156 -28.066406 L 24.816406 -28.066406 L 24.816406 -25.660156 L 2.804688 -25.660156 L 2.804688 -28.066406 L 5.214844 -28.066406 L 5.214844 0 L 2.804688 0 L 2.804688 -2.40625 L 25.339844 -2.40625 L 25.339844 0 L 22.933594 0 Z M 22.933594 -6.132812 "/></g></g><g style="fill:#ffffff;fill-opacity:1;"><g transform="translate(37.860462, 39.666471)"><path style="stroke:none" d="M 31.914062 -28.066406 L 31.914062 2.40625 L 21.84375 2.40625 L 8.730469 -13.417969 L 10.585938 -14.953125 L 12.992188 -14.953125 L 12.992188 2.40625 L 0.398438 2.40625 L 0.398438 -30.472656 L 10.472656 -30.472656 L 23.585938 -14.644531 L 21.730469 -13.109375 L 19.324219 -13.109375 L 19.324219 -30.472656 L 31.914062 -30.472656 Z M 27.101562 -28.066406 L 29.507812 -28.066406 L 29.507812 -25.660156 L 21.730469 -25.660156 L 21.730469 -28.066406 L 24.136719 -28.066406 L 24.136719 -6.433594 L 7.488281 -26.53125 L 9.34375 -28.066406 L 9.34375 -25.660156 L 2.804688 -25.660156 L 2.804688 -28.066406 L 5.214844 -28.066406 L 5.214844 0 L 2.804688 0 L 2.804688 -2.40625 L 10.585938 -2.40625 L 10.585938 0 L 8.179688 0 L 8.179688 -21.632812 L 24.828125 -1.535156 L 22.972656 0 L 22.972656 -2.40625 L 29.507812 -2.40625 L 29.507812 0 L 27.101562 0 Z M 27.101562 -28.066406 "/></g></g><g style="fill:#ffffff;fill-opacity:1;"><g transform="translate(77.874479, 39.666471)"><path style="stroke:none" d=""/></g></g><g style="fill:#ffffff;fill-opacity:1;"><g transform="translate(97.242098, 39.666471)"><path style="stroke:none" d="M 15.636719 -30.472656 C 18.519531 -30.472656 21.054688 -29.980469 23.238281 -28.996094 C 25.539062 -27.960938 27.328125 -26.464844 28.601562 -24.503906 C 29.875 -22.542969 30.511719 -20.269531 30.511719 -17.679688 C 30.511719 -15.089844 29.875 -12.820312 28.59375 -10.871094 C 27.324219 -8.925781 25.539062 -7.441406 23.238281 -6.40625 C 21.054688 -5.421875 18.519531 -4.929688 15.636719 -4.929688 L 10.746094 -4.929688 L 10.746094 -7.335938 L 13.152344 -7.335938 L 13.152344 2.40625 L 0.398438 2.40625 L 0.398438 -30.472656 Z M 15.636719 -25.660156 L 2.804688 -25.660156 L 2.804688 -28.066406 L 5.214844 -28.066406 L 5.214844 0 L 2.804688 0 L 2.804688 -2.40625 L 10.746094 -2.40625 L 10.746094 0 L 8.339844 0 L 8.339844 -9.742188 L 15.636719 -9.742188 C 17.832031 -9.742188 19.707031 -10.09375 21.265625 -10.792969 C 22.707031 -11.445312 23.808594 -12.347656 24.570312 -13.507812 C 25.324219 -14.65625 25.699219 -16.046875 25.699219 -17.679688 C 25.699219 -19.316406 25.320312 -20.71875 24.5625 -21.882812 C 23.804688 -23.050781 22.707031 -23.960938 21.265625 -24.609375 C 19.707031 -25.308594 17.832031 -25.660156 15.636719 -25.660156 Z M 15.15625 -16 C 16.195312 -16 16.902344 -16.160156 17.28125 -16.484375 C 17.546875 -16.710938 17.679688 -17.109375 17.679688 -17.679688 C 17.679688 -18.261719 17.542969 -18.671875 17.261719 -18.914062 C 16.886719 -19.242188 16.183594 -19.40625 15.15625 -19.40625 L 10.746094 -19.40625 L 10.746094 -21.8125 L 13.152344 -21.8125 L 13.152344 -13.59375 L 10.746094 -13.59375 L 10.746094 -16 Z M 15.15625 -11.183594 L 8.339844 -11.183594 L 8.339844 -24.21875 L 15.15625 -24.21875 C 17.386719 -24.21875 19.144531 -23.660156 20.425781 -22.542969 C 21.804688 -21.34375 22.492188 -19.722656 22.492188 -17.679688 C 22.492188 -16.710938 22.332031 -15.824219 22.003906 -15.027344 C 21.648438 -14.164062 21.117188 -13.429688 20.40625 -12.824219 C 19.128906 -11.730469 17.378906 -11.183594 15.15625 -11.183594 Z M 15.15625 -11.183594 "/></g></g><g style="fill:#ffffff;fill-opacity:1;"><g transform="translate(134.088943, 39.666471)"><path style="stroke:none" d="M 0.398438 -30.472656 L 13.152344 -30.472656 L 13.152344 2.40625 L 0.398438 2.40625 Z M 5.214844 -25.660156 L 5.214844 -2.40625 L 8.339844 -2.40625 L 8.339844 -25.660156 Z M 5.214844 -25.660156 "/></g></g><g style="fill:#ffffff;fill-opacity:1;"><g transform="translate(155.380902, 39.666471)"><path style="stroke:none" d="M 18.527344 1.335938 L 12.714844 -7.363281 L 14.714844 -8.699219 L 16.722656 -7.375 L 10.277344 2.40625 L -4.78125 2.40625 L 8.191406 -15.601562 L 10.144531 -14.191406 L 8.175781 -12.804688 L -4.28125 -30.472656 L 10.5625 -30.472656 L 16.894531 -21.335938 L 14.914062 -19.96875 L 12.929688 -21.324219 L 19.175781 -30.472656 L 33.734375 -30.472656 L 21.195312 -13.105469 L 19.246094 -14.515625 L 21.199219 -15.917969 L 34.359375 2.40625 L 19.242188 2.40625 Z M 22.527344 -1.335938 L 20.527344 0 L 20.527344 -2.40625 L 29.667969 -2.40625 L 29.667969 0 L 27.714844 1.402344 L 16.28125 -14.519531 L 27.078125 -29.472656 L 29.027344 -28.066406 L 29.027344 -25.660156 L 20.449219 -25.660156 L 20.449219 -28.066406 L 22.433594 -26.707031 L 14.929688 -15.722656 L 7.324219 -26.695312 L 9.300781 -28.066406 L 9.300781 -25.660156 L 0.359375 -25.660156 L 0.359375 -28.066406 L 2.328125 -29.453125 L 13.097656 -14.179688 L 1.871094 1.40625 L -0.0820312 0 L -0.0820312 -2.40625 L 8.980469 -2.40625 L 8.980469 0 L 6.972656 -1.324219 L 14.699219 -13.054688 Z M 22.527344 -1.335938 "/></g></g><g style="fill:#ffffff;fill-opacity:1;"><g transform="translate(191.786714, 39.666471)"><path style="stroke:none" d="M 27.746094 -6.132812 L 27.746094 2.40625 L 0.398438 2.40625 L 0.398438 -30.472656 L 27.226562 -30.472656 L 27.226562 -19.523438 L 10.664062 -19.523438 L 10.664062 -21.929688 L 13.070312 -21.929688 L 13.070312 -17.199219 L 10.664062 -17.199219 L 10.664062 -19.605469 L 25.539062 -19.605469 L 25.539062 -8.859375 L 10.664062 -8.859375 L 10.664062 -11.265625 L 13.070312 -11.265625 L 13.070312 -6.132812 L 10.664062 -6.132812 L 10.664062 -8.542969 L 27.746094 -8.542969 Z M 22.933594 -6.132812 L 25.339844 -6.132812 L 25.339844 -3.726562 L 8.257812 -3.726562 L 8.257812 -13.671875 L 23.132812 -13.671875 L 23.132812 -11.265625 L 20.726562 -11.265625 L 20.726562 -17.199219 L 23.132812 -17.199219 L 23.132812 -14.792969 L 8.257812 -14.792969 L 8.257812 -24.339844 L 24.816406 -24.339844 L 24.816406 -21.929688 L 22.410156 -21.929688 L 22.410156 -28.066406 L 24.816406 -28.066406 L 24.816406 -25.660156 L 2.804688 -25.660156 L 2.804688 -28.066406 L 5.214844 -28.066406 L 5.214844 0 L 2.804688 0 L 2.804688 -2.40625 L 25.339844 -2.40625 L 25.339844 0 L 22.933594 0 Z M 22.933594 -6.132812 "/></g></g><g style="fill:#ffffff;fill-opacity:1;"><g transform="translate(226.42866, 39.666471)"><path style="stroke:none" d="M 2.804688 -30.472656 L 13.152344 -30.472656 L 13.152344 -6.292969 L 10.746094 -6.292969 L 10.746094 -8.703125 L 26.542969 -8.703125 L 26.542969 2.40625 L 0.398438 2.40625 L 0.398438 -30.472656 Z M 2.804688 -25.660156 L 2.804688 -28.066406 L 5.214844 -28.066406 L 5.214844 0 L 2.804688 0 L 2.804688 -2.40625 L 24.136719 -2.40625 L 24.136719 0 L 21.730469 0 L 21.730469 -6.292969 L 24.136719 -6.292969 L 24.136719 -3.886719 L 8.339844 -3.886719 L 8.339844 -28.066406 L 10.746094 -28.066406 L 10.746094 -25.660156 Z M 2.804688 -25.660156 "/></g></g><g style="fill:#ffffff;fill-opacity:1;"><g transform="translate(258.504809, 39.666471)"><path style="stroke:none" d="M 12.667969 2.96875 C 10.191406 2.96875 7.78125 2.660156 5.441406 2.046875 C 3.027344 1.414062 1.035156 0.546875 -0.539062 -0.554688 L -2.164062 -1.691406 L 2.402344 -11.953125 L 4.773438 -10.390625 C 5.835938 -9.6875 7.085938 -9.117188 8.523438 -8.675781 C 9.949219 -8.238281 11.347656 -8.019531 12.710938 -8.019531 C 13.855469 -8.019531 14.636719 -8.125 15.0625 -8.335938 C 15.078125 -8.347656 15.09375 -8.355469 15.105469 -8.359375 C 15.105469 -8.359375 15.101562 -8.359375 15.097656 -8.355469 C 15.0625 -8.324219 15.027344 -8.285156 14.992188 -8.234375 C 14.914062 -8.113281 14.875 -8.003906 14.875 -7.898438 C 14.875 -7.777344 14.917969 -7.652344 15.011719 -7.527344 C 15.042969 -7.484375 15.070312 -7.453125 15.097656 -7.429688 C 15.082031 -7.445312 15.046875 -7.460938 14.996094 -7.484375 C 14.277344 -7.804688 13.03125 -8.164062 11.265625 -8.554688 C 9.054688 -9.03125 7.1875 -9.550781 5.664062 -10.109375 C 3.867188 -10.769531 2.328125 -11.828125 1.042969 -13.28125 C -0.375 -14.886719 -1.082031 -16.96875 -1.082031 -19.527344 C -1.082031 -21.730469 -0.476562 -23.726562 0.734375 -25.507812 C 1.933594 -27.273438 3.675781 -28.648438 5.960938 -29.632812 C 8.125 -30.566406 10.722656 -31.035156 13.753906 -31.035156 C 15.78125 -31.035156 17.777344 -30.804688 19.746094 -30.351562 C 21.777344 -29.878906 23.582031 -29.183594 25.15625 -28.253906 L 26.960938 -27.195312 L 22.691406 -16.902344 L 20.347656 -18.167969 C 18.03125 -19.421875 15.820312 -20.046875 13.710938 -20.046875 C 13.085938 -20.046875 12.5625 -20.003906 12.148438 -19.917969 C 11.871094 -19.863281 11.679688 -19.800781 11.574219 -19.730469 C 11.53125 -19.707031 11.503906 -19.683594 11.488281 -19.667969 C 11.496094 -19.675781 11.507812 -19.691406 11.523438 -19.714844 C 11.566406 -19.789062 11.589844 -19.859375 11.589844 -19.925781 C 11.589844 -20.09375 11.53125 -20.253906 11.417969 -20.402344 C 11.382812 -20.449219 11.351562 -20.480469 11.320312 -20.503906 C 11.339844 -20.488281 11.375 -20.472656 11.429688 -20.449219 C 12.132812 -20.140625 13.355469 -19.800781 15.089844 -19.433594 C 17.347656 -18.957031 19.230469 -18.433594 20.746094 -17.871094 C 22.515625 -17.214844 24.046875 -16.171875 25.339844 -14.746094 C 26.785156 -13.152344 27.503906 -11.070312 27.503906 -8.5 C 27.503906 -6.320312 26.898438 -4.339844 25.679688 -2.566406 C 24.484375 -0.824219 22.738281 0.546875 20.445312 1.542969 C 18.269531 2.492188 15.675781 2.96875 12.667969 2.96875 Z M 12.667969 -1.84375 C 15.007812 -1.84375 16.960938 -2.1875 18.523438 -2.867188 C 19.972656 -3.5 21.035156 -4.308594 21.710938 -5.292969 C 22.363281 -6.242188 22.691406 -7.3125 22.691406 -8.5 C 22.691406 -9.832031 22.386719 -10.835938 21.773438 -11.515625 C 21.003906 -12.359375 20.105469 -12.976562 19.070312 -13.359375 C 17.777344 -13.839844 16.117188 -14.296875 14.097656 -14.726562 C 12.039062 -15.160156 10.503906 -15.597656 9.5 -16.039062 C 8.691406 -16.390625 8.054688 -16.875 7.589844 -17.484375 C 7.046875 -18.199219 6.773438 -19.011719 6.773438 -19.925781 C 6.773438 -20.742188 6.976562 -21.488281 7.382812 -22.171875 C 7.753906 -22.800781 8.277344 -23.332031 8.953125 -23.769531 C 10.074219 -24.496094 11.660156 -24.859375 13.710938 -24.859375 C 16.628906 -24.859375 19.605469 -24.042969 22.632812 -22.40625 L 21.492188 -20.289062 L 19.265625 -21.210938 L 21.714844 -27.105469 L 23.9375 -26.179688 L 22.714844 -24.105469 C 21.566406 -24.785156 20.214844 -25.300781 18.664062 -25.660156 C 17.050781 -26.035156 15.414062 -26.21875 13.753906 -26.21875 C 11.382812 -26.21875 9.421875 -25.886719 7.871094 -25.214844 C 6.441406 -24.597656 5.390625 -23.792969 4.71875 -22.804688 C 4.058594 -21.835938 3.730469 -20.742188 3.730469 -19.527344 C 3.730469 -18.183594 4.035156 -17.164062 4.648438 -16.46875 C 5.398438 -15.621094 6.289062 -15.007812 7.328125 -14.628906 C 8.636719 -14.144531 10.296875 -13.6875 12.308594 -13.253906 C 14.390625 -12.792969 15.941406 -12.335938 16.957031 -11.878906 C 17.78125 -11.511719 18.429688 -11.007812 18.898438 -10.367188 C 19.425781 -9.644531 19.6875 -8.824219 19.6875 -7.898438 C 19.6875 -7.03125 19.457031 -6.253906 18.996094 -5.5625 C 18.570312 -4.921875 17.976562 -4.414062 17.214844 -4.03125 C 16.113281 -3.480469 14.613281 -3.207031 12.710938 -3.207031 C 10.867188 -3.207031 9 -3.496094 7.113281 -4.074219 C 5.234375 -4.648438 3.570312 -5.414062 2.121094 -6.371094 L 3.449219 -8.378906 L 5.648438 -7.402344 L 3.039062 -1.546875 L 0.84375 -2.527344 L 2.222656 -4.496094 C 3.324219 -3.726562 4.804688 -3.097656 6.664062 -2.609375 C 8.601562 -2.101562 10.605469 -1.84375 12.667969 -1.84375 Z M 12.667969 -1.84375 "/></g></g><g style="fill:#ffffff;fill-opacity:1;"><g transform="translate(3.218516, 39.666471)"><path style="stroke:none" d="M 25.34375 -6.140625 L 25.34375 0 L 2.8125 0 L 2.8125 -28.0625 L 24.8125 -28.0625 L 24.8125 -21.9375 L 10.671875 -21.9375 L 10.671875 -17.203125 L 23.140625 -17.203125 L 23.140625 -11.265625 L 10.671875 -11.265625 L 10.671875 -6.140625 Z M 25.34375 -6.140625 "/></g></g><g style="fill:#ffffff;fill-opacity:1;"><g transform="translate(37.860462, 39.666471)"><path style="stroke:none" d="M 29.515625 -28.0625 L 29.515625 0 L 22.96875 0 L 10.578125 -14.953125 L 10.578125 0 L 2.8125 0 L 2.8125 -28.0625 L 9.34375 -28.0625 L 21.734375 -13.109375 L 21.734375 -28.0625 Z M 29.515625 -28.0625 "/></g></g><g style="fill:#ffffff;fill-opacity:1;"><g transform="translate(77.874479, 39.666471)"><path style="stroke:none" d=""/></g></g><g style="fill:#ffffff;fill-opacity:1;"><g transform="translate(97.242098, 39.666471)"><path style="stroke:none" d="M 15.640625 -28.0625 C 18.179688 -28.0625 20.382812 -27.640625 22.25 -26.796875 C 24.125 -25.960938 25.566406 -24.757812 26.578125 -23.1875 C 27.597656 -21.625 28.109375 -19.789062 28.109375 -17.6875 C 28.109375 -15.570312 27.597656 -13.738281 26.578125 -12.1875 C 25.566406 -10.632812 24.125 -9.4375 22.25 -8.59375 C 20.382812 -7.757812 18.179688 -7.34375 15.640625 -7.34375 L 10.75 -7.34375 L 10.75 0 L 2.8125 0 L 2.8125 -28.0625 Z M 15.15625 -13.59375 C 16.78125 -13.59375 18.007812 -13.945312 18.84375 -14.65625 C 19.675781 -15.363281 20.09375 -16.375 20.09375 -17.6875 C 20.09375 -18.988281 19.675781 -20 18.84375 -20.71875 C 18.007812 -21.445312 16.78125 -21.8125 15.15625 -21.8125 L 10.75 -21.8125 L 10.75 -13.59375 Z M 15.15625 -13.59375 "/></g></g><g style="fill:#ffffff;fill-opacity:1;"><g transform="translate(134.088943, 39.666471)"><path style="stroke:none" d="M 2.8125 -28.0625 L 10.75 -28.0625 L 10.75 0 L 2.8125 0 Z M 2.8125 -28.0625 "/></g></g><g style="fill:#ffffff;fill-opacity:1;"><g transform="translate(155.380902, 39.666471)"><path style="stroke:none" d="M 20.53125 0 L 14.71875 -8.703125 L 8.984375 0 L -0.078125 0 L 10.140625 -14.1875 L 0.359375 -28.0625 L 9.296875 -28.0625 L 14.921875 -19.96875 L 20.453125 -28.0625 L 29.03125 -28.0625 L 19.25 -14.515625 L 29.671875 0 Z M 20.53125 0 "/></g></g><g style="fill:#ffffff;fill-opacity:1;"><g transform="translate(191.786714, 39.666471)"><path style="stroke:none" d="M 25.34375 -6.140625 L 25.34375 0 L 2.8125 0 L 2.8125 -28.0625 L 24.8125 -28.0625 L 24.8125 -21.9375 L 10.671875 -21.9375 L 10.671875 -17.203125 L 23.140625 -17.203125 L 23.140625 -11.265625 L 10.671875 -11.265625 L 10.671875 -6.140625 Z M 25.34375 -6.140625 "/></g></g><g style="fill:#ffffff;fill-opacity:1;"><g transform="translate(226.42866, 39.666471)"><path style="stroke:none" d="M 2.8125 -28.0625 L 10.75 -28.0625 L 10.75 -6.296875 L 24.140625 -6.296875 L 24.140625 0 L 2.8125 0 Z M 2.8125 -28.0625 "/></g></g><g style="fill:#ffffff;fill-opacity:1;"><g transform="translate(258.504809, 39.666471)"><path style="stroke:none" d="M 12.671875 0.5625 C 10.398438 0.5625 8.191406 0.28125 6.046875 -0.28125 C 3.910156 -0.84375 2.175781 -1.59375 0.84375 -2.53125 L 3.453125 -8.375 C 4.703125 -7.550781 6.15625 -6.882812 7.8125 -6.375 C 9.46875 -5.863281 11.097656 -5.609375 12.703125 -5.609375 C 15.753906 -5.609375 17.28125 -6.375 17.28125 -7.90625 C 17.28125 -8.695312 16.84375 -9.285156 15.96875 -9.671875 C 15.101562 -10.066406 13.707031 -10.476562 11.78125 -10.90625 C 9.675781 -11.363281 7.914062 -11.851562 6.5 -12.375 C 5.082031 -12.894531 3.863281 -13.726562 2.84375 -14.875 C 1.832031 -16.019531 1.328125 -17.570312 1.328125 -19.53125 C 1.328125 -21.238281 1.789062 -22.78125 2.71875 -24.15625 C 3.65625 -25.53125 5.050781 -26.617188 6.90625 -27.421875 C 8.769531 -28.222656 11.050781 -28.625 13.75 -28.625 C 15.59375 -28.625 17.410156 -28.414062 19.203125 -28 C 20.992188 -27.59375 22.570312 -26.988281 23.9375 -26.1875 L 21.484375 -20.28125 C 18.816406 -21.726562 16.226562 -22.453125 13.71875 -22.453125 C 12.132812 -22.453125 10.984375 -22.21875 10.265625 -21.75 C 9.546875 -21.28125 9.1875 -20.671875 9.1875 -19.921875 C 9.1875 -19.171875 9.613281 -18.609375 10.46875 -18.234375 C 11.320312 -17.867188 12.695312 -17.484375 14.59375 -17.078125 C 16.726562 -16.617188 18.5 -16.128906 19.90625 -15.609375 C 21.3125 -15.085938 22.523438 -14.257812 23.546875 -13.125 C 24.578125 -11.988281 25.09375 -10.445312 25.09375 -8.5 C 25.09375 -6.8125 24.625 -5.285156 23.6875 -3.921875 C 22.757812 -2.566406 21.359375 -1.476562 19.484375 -0.65625 C 17.609375 0.15625 15.335938 0.5625 12.671875 0.5625 Z M 12.671875 0.5625 "/></g></g></g></g><g transform="matrix(1,0,0,1,18,185)"><g clip-path="url(#128aabd48b)"><g style="fill:#000000;fill-opacity:1;"><g transform="translate(0.218516, 40.136524)"><path style="stroke:none" d="M 25.34375 -6.140625 L 25.34375 0 L 2.8125 0 L 2.8125 -28.0625 L 24.8125 -28.0625 L 24.8125 -21.9375 L 10.671875 -21.9375 L 10.671875 -17.203125 L 23.140625 -17.203125 L 23.140625 -11.265625 L 10.671875 -11.265625 L 10.671875 -6.140625 Z M 25.34375 -6.140625 "/></g></g><g style="fill:#000000;fill-opacity:1;"><g transform="translate(34.860462, 40.136524)"><path style="stroke:none" d="M 29.515625 -28.0625 L 29.515625 0 L 22.96875 0 L 10.578125 -14.953125 L 10.578125 0 L 2.8125 0 L 2.8125 -28.0625 L 9.34375 -28.0625 L 21.734375 -13.109375 L 21.734375 -28.0625 Z M 29.515625 -28.0625 "/></g></g><g style="fill:#000000;fill-opacity:1;"><g transform="translate(74.874479, 40.136524)"><path style="stroke:none" d=""/></g></g><g style="fill:#000000;fill-opacity:1;"><g transform="translate(94.242098, 40.136524)"><path style="stroke:none" d="M 15.640625 -28.0625 C 18.179688 -28.0625 20.382812 -27.640625 22.25 -26.796875 C 24.125 -25.960938 25.566406 -24.757812 26.578125 -23.1875 C 27.597656 -21.625 28.109375 -19.789062 28.109375 -17.6875 C 28.109375 -15.570312 27.597656 -13.738281 26.578125 -12.1875 C 25.566406 -10.632812 24.125 -9.4375 22.25 -8.59375 C 20.382812 -7.757812 18.179688 -7.34375 15.640625 -7.34375 L 10.75 -7.34375 L 10.75 0 L 2.8125 0 L 2.8125 -28.0625 Z M 15.15625 -13.59375 C 16.78125 -13.59375 18.007812 -13.945312 18.84375 -14.65625 C 19.675781 -15.363281 20.09375 -16.375 20.09375 -17.6875 C 20.09375 -18.988281 19.675781 -20 18.84375 -20.71875 C 18.007812 -21.445312 16.78125 -21.8125 15.15625 -21.8125 L 10.75 -21.8125 L 10.75 -13.59375 Z M 15.15625 -13.59375 "/></g></g><g style="fill:#000000;fill-opacity:1;"><g transform="translate(131.088943, 40.136524)"><path style="stroke:none" d="M 2.8125 -28.0625 L 10.75 -28.0625 L 10.75 0 L 2.8125 0 Z M 2.8125 -28.0625 "/></g></g><g style="fill:#000000;fill-opacity:1;"><g transform="translate(152.380902, 40.136524)"><path style="stroke:none" d="M 20.53125 0 L 14.71875 -8.703125 L 8.984375 0 L -0.078125 0 L 10.140625 -14.1875 L 0.359375 -28.0625 L 9.296875 -28.0625 L 14.921875 -19.96875 L 20.453125 -28.0625 L 29.03125 -28.0625 L 19.25 -14.515625 L 29.671875 0 Z M 20.53125 0 "/></g></g><g style="fill:#000000;fill-opacity:1;"><g transform="translate(188.786714, 40.136524)"><path style="stroke:none" d="M 25.34375 -6.140625 L 25.34375 0 L 2.8125 0 L 2.8125 -28.0625 L 24.8125 -28.0625 L 24.8125 -21.9375 L 10.671875 -21.9375 L 10.671875 -17.203125 L 23.140625 -17.203125 L 23.140625 -11.265625 L 10.671875 -11.265625 L 10.671875 -6.140625 Z M 25.34375 -6.140625 "/></g></g><g style="fill:#000000;fill-opacity:1;"><g transform="translate(223.42866, 40.136524)"><path style="stroke:none" d="M 2.8125 -28.0625 L 10.75 -28.0625 L 10.75 -6.296875 L 24.140625 -6.296875 L 24.140625 0 L 2.8125 0 Z M 2.8125 -28.0625 "/></g></g><g style="fill:#000000;fill-opacity:1;"><g transform="translate(255.504809, 40.136524)"><path style="stroke:none" d="M 12.671875 0.5625 C 10.398438 0.5625 8.191406 0.28125 6.046875 -0.28125 C 3.910156 -0.84375 2.175781 -1.59375 0.84375 -2.53125 L 3.453125 -8.375 C 4.703125 -7.550781 6.15625 -6.882812 7.8125 -6.375 C 9.46875 -5.863281 11.097656 -5.609375 12.703125 -5.609375 C 15.753906 -5.609375 17.28125 -6.375 17.28125 -7.90625 C 17.28125 -8.695312 16.84375 -9.285156 15.96875 -9.671875 C 15.101562 -10.066406 13.707031 -10.476562 11.78125 -10.90625 C 9.675781 -11.363281 7.914062 -11.851562 6.5 -12.375 C 5.082031 -12.894531 3.863281 -13.726562 2.84375 -14.875 C 1.832031 -16.019531 1.328125 -17.570312 1.328125 -19.53125 C 1.328125 -21.238281 1.789062 -22.78125 2.71875 -24.15625 C 3.65625 -25.53125 5.050781 -26.617188 6.90625 -27.421875 C 8.769531 -28.222656 11.050781 -28.625 13.75 -28.625 C 15.59375 -28.625 17.410156 -28.414062 19.203125 -28 C 20.992188 -27.59375 22.570312 -26.988281 23.9375 -26.1875 L 21.484375 -20.28125 C 18.816406 -21.726562 16.226562 -22.453125 13.71875 -22.453125 C 12.132812 -22.453125 10.984375 -22.21875 10.265625 -21.75 C 9.546875 -21.28125 9.1875 -20.671875 9.1875 -19.921875 C 9.1875 -19.171875 9.613281 -18.609375 10.46875 -18.234375 C 11.320312 -17.867188 12.695312 -17.484375 14.59375 -17.078125 C 16.726562 -16.617188 18.5 -16.128906 19.90625 -15.609375 C 21.3125 -15.085938 22.523438 -14.257812 23.546875 -13.125 C 24.578125 -11.988281 25.09375 -10.445312 25.09375 -8.5 C 25.09375 -6.8125 24.625 -5.285156 23.6875 -3.921875 C 22.757812 -2.566406 21.359375 -1.476562 19.484375 -0.65625 C 17.609375 0.15625 15.335938 0.5625 12.671875 0.5625 Z M 12.671875 0.5625 "/></g></g></g></g><g transform="matrix(1,0,0,1,19,252)"><g clip-path="url(#f88daf1d84)"><g style="fill:#000000;fill-opacity:1;"><g transform="translate(1.074166, 13.481619)"><path style="stroke:none" d="M 5.21875 0.125 C 4.320312 0.125 3.523438 -0.0351562 2.828125 -0.359375 C 2.140625 -0.679688 1.601562 -1.144531 1.21875 -1.75 C 0.832031 -2.363281 0.640625 -3.101562 0.640625 -3.96875 C 0.640625 -4.632812 0.757812 -5.238281 1 -5.78125 C 1.238281 -6.320312 1.578125 -6.78125 2.015625 -7.15625 C 2.460938 -7.53125 2.984375 -7.816406 3.578125 -8.015625 C 4.171875 -8.222656 4.820312 -8.328125 5.53125 -8.328125 C 5.957031 -8.328125 6.382812 -8.28125 6.8125 -8.1875 C 7.238281 -8.101562 7.601562 -7.988281 7.90625 -7.84375 L 8 -5.703125 L 7.140625 -5.65625 L 6.640625 -7.125 C 6.460938 -7.21875 6.265625 -7.285156 6.046875 -7.328125 C 5.835938 -7.378906 5.625 -7.40625 5.40625 -7.40625 C 4.863281 -7.40625 4.40625 -7.273438 4.03125 -7.015625 C 3.65625 -6.765625 3.367188 -6.40625 3.171875 -5.9375 C 2.984375 -5.476562 2.890625 -4.929688 2.890625 -4.296875 C 2.890625 -3.578125 3.007812 -2.957031 3.25 -2.4375 C 3.488281 -1.925781 3.804688 -1.53125 4.203125 -1.25 C 4.597656 -0.976562 5.046875 -0.84375 5.546875 -0.84375 C 5.804688 -0.84375 6.054688 -0.875 6.296875 -0.9375 C 6.546875 -1.007812 6.753906 -1.113281 6.921875 -1.25 L 7.421875 -2.546875 L 8.359375 -2.4375 L 7.953125 -0.59375 C 7.671875 -0.40625 7.28125 -0.238281 6.78125 -0.09375 C 6.28125 0.0507812 5.757812 0.125 5.21875 0.125 Z M 5.21875 0.125 "/></g></g><g style="fill:#000000;fill-opacity:1;"><g transform="translate(21.206287, 13.481619)"><path style="stroke:none" d="M 0.59375 0 L 0.546875 -0.703125 L 1.4375 -0.9375 C 1.4375 -0.988281 1.4375 -1.09375 1.4375 -1.25 C 1.445312 -1.414062 1.453125 -1.601562 1.453125 -1.8125 C 1.460938 -2.03125 1.46875 -2.25 1.46875 -2.46875 C 1.476562 -2.695312 1.484375 -2.898438 1.484375 -3.078125 L 1.484375 -5.109375 C 1.484375 -5.503906 1.476562 -5.851562 1.46875 -6.15625 C 1.457031 -6.46875 1.441406 -6.722656 1.421875 -6.921875 C 1.410156 -7.117188 1.394531 -7.238281 1.375 -7.28125 L 0.484375 -7.5 L 0.53125 -8.203125 L 4.140625 -8.203125 C 5.210938 -8.203125 6.003906 -8.03125 6.515625 -7.6875 C 7.023438 -7.34375 7.28125 -6.804688 7.28125 -6.078125 C 7.28125 -5.617188 7.140625 -5.207031 6.859375 -4.84375 C 6.585938 -4.488281 6.207031 -4.207031 5.71875 -4 C 5.226562 -3.800781 4.664062 -3.703125 4.03125 -3.703125 L 3.125 -3.703125 L 3.125 -4.515625 L 3.75 -4.515625 C 4.21875 -4.515625 4.59375 -4.65625 4.875 -4.9375 C 5.164062 -5.21875 5.3125 -5.597656 5.3125 -6.078125 C 5.3125 -6.515625 5.191406 -6.84375 4.953125 -7.0625 C 4.710938 -7.289062 4.363281 -7.40625 3.90625 -7.40625 L 3.375 -7.40625 C 3.363281 -7.382812 3.351562 -7.304688 3.34375 -7.171875 C 3.34375 -7.046875 3.34375 -6.878906 3.34375 -6.671875 C 3.34375 -6.472656 3.34375 -6.25 3.34375 -6 C 3.34375 -5.757812 3.34375 -5.5 3.34375 -5.21875 L 3.34375 -3.078125 C 3.34375 -2.828125 3.34375 -2.554688 3.34375 -2.265625 C 3.351562 -1.984375 3.363281 -1.71875 3.375 -1.46875 C 3.382812 -1.226562 3.394531 -1.050781 3.40625 -0.9375 L 4.1875 -0.703125 L 4.140625 0 Z M 7.875 0.171875 C 7.351562 0.171875 6.890625 0.0859375 6.484375 -0.078125 C 6.078125 -0.242188 5.710938 -0.503906 5.390625 -0.859375 C 5.078125 -1.210938 4.789062 -1.660156 4.53125 -2.203125 L 3.734375 -3.921875 L 5.296875 -4.28125 L 6.953125 -1.96875 C 7.148438 -1.695312 7.335938 -1.46875 7.515625 -1.28125 C 7.703125 -1.09375 7.898438 -0.941406 8.109375 -0.828125 C 8.316406 -0.710938 8.535156 -0.625 8.765625 -0.5625 L 8.75 0.078125 C 8.601562 0.109375 8.457031 0.128906 8.3125 0.140625 C 8.164062 0.160156 8.019531 0.171875 7.875 0.171875 Z M 7.875 0.171875 "/></g></g><g style="fill:#000000;fill-opacity:1;"><g transform="translate(41.380298, 13.481619)"><path style="stroke:none" d="M 7.265625 0.078125 C 7.003906 0.0664062 6.6875 0.0507812 6.3125 0.03125 C 5.945312 0.0078125 5.613281 0 5.3125 0 L 0.515625 0 L 0.46875 -0.703125 L 1.375 -0.921875 C 1.382812 -0.960938 1.394531 -1.082031 1.40625 -1.28125 C 1.425781 -1.476562 1.441406 -1.734375 1.453125 -2.046875 C 1.460938 -2.359375 1.46875 -2.703125 1.46875 -3.078125 L 1.46875 -5.109375 C 1.46875 -5.503906 1.460938 -5.851562 1.453125 -6.15625 C 1.441406 -6.46875 1.425781 -6.722656 1.40625 -6.921875 C 1.394531 -7.117188 1.382812 -7.238281 1.375 -7.28125 L 0.46875 -7.5 L 0.515625 -8.203125 L 4.8125 -8.203125 C 5 -8.203125 5.222656 -8.203125 5.484375 -8.203125 C 5.753906 -8.203125 6.015625 -8.207031 6.265625 -8.21875 C 6.523438 -8.238281 6.742188 -8.253906 6.921875 -8.265625 L 7.296875 -6.203125 L 6.5 -6.09375 L 5.96875 -7.3125 C 5.851562 -7.34375 5.742188 -7.363281 5.640625 -7.375 C 5.546875 -7.382812 5.441406 -7.390625 5.328125 -7.390625 L 4.265625 -7.390625 C 4.085938 -7.390625 3.914062 -7.382812 3.75 -7.375 C 3.59375 -7.375 3.460938 -7.363281 3.359375 -7.34375 C 3.359375 -7.269531 3.351562 -7.15625 3.34375 -7 C 3.34375 -6.851562 3.34375 -6.664062 3.34375 -6.4375 C 3.34375 -6.207031 3.34375 -5.929688 3.34375 -5.609375 L 3.34375 -2.6875 C 3.34375 -2.382812 3.34375 -2.113281 3.34375 -1.875 C 3.34375 -1.644531 3.34375 -1.453125 3.34375 -1.296875 C 3.351562 -1.148438 3.359375 -1.035156 3.359375 -0.953125 C 3.523438 -0.921875 3.703125 -0.898438 3.890625 -0.890625 C 4.078125 -0.878906 4.3125 -0.875 4.59375 -0.875 L 5.328125 -0.875 C 5.578125 -0.875 5.757812 -0.875 5.875 -0.875 C 5.988281 -0.882812 6.078125 -0.894531 6.140625 -0.90625 C 6.203125 -0.914062 6.265625 -0.925781 6.328125 -0.9375 L 7.09375 -2.328125 L 7.890625 -2.171875 Z M 5.484375 -2.796875 L 5.34375 -3.734375 C 5.28125 -3.734375 5.175781 -3.734375 5.03125 -3.734375 C 4.894531 -3.742188 4.734375 -3.75 4.546875 -3.75 L 3.8125 -3.75 C 3.65625 -3.75 3.503906 -3.742188 3.359375 -3.734375 C 3.210938 -3.734375 3.101562 -3.726562 3.03125 -3.71875 L 3.03125 -4.703125 C 3.101562 -4.691406 3.210938 -4.679688 3.359375 -4.671875 C 3.503906 -4.660156 3.65625 -4.65625 3.8125 -4.65625 L 4.546875 -4.65625 C 4.734375 -4.65625 4.894531 -4.65625 5.03125 -4.65625 C 5.175781 -4.664062 5.28125 -4.671875 5.34375 -4.671875 L 5.484375 -5.609375 L 6.25 -5.609375 L 6.25 -2.796875 Z M 5.484375 -2.796875 "/></g></g><g style="fill:#000000;fill-opacity:1;"><g transform="translate(60.953874, 13.481619)"><path style="stroke:none" d="M -0.015625 0 L -0.0625 -0.703125 L 0.671875 -0.921875 L 3.5 -7.796875 L 4.671875 -8.453125 L 7.890625 -0.921875 L 8.609375 -0.703125 L 8.578125 0 L 4.828125 0 L 4.78125 -0.703125 L 5.6875 -0.921875 L 4.921875 -2.71875 L 4.78125 -3.203125 L 3.375 -6.5 L 3.78125 -6.375 L 2.625 -3.234375 L 2.5 -2.8125 L 1.828125 -0.921875 L 2.71875 -0.703125 L 2.6875 0 Z M 2.171875 -2.375 L 2.171875 -3.328125 C 2.347656 -3.316406 2.550781 -3.300781 2.78125 -3.28125 C 3.019531 -3.269531 3.335938 -3.265625 3.734375 -3.265625 C 4.097656 -3.265625 4.40625 -3.269531 4.65625 -3.28125 C 4.90625 -3.300781 5.117188 -3.316406 5.296875 -3.328125 L 5.296875 -2.390625 C 5.117188 -2.390625 4.898438 -2.394531 4.640625 -2.40625 C 4.390625 -2.414062 4.085938 -2.421875 3.734375 -2.421875 C 3.347656 -2.421875 3.03125 -2.414062 2.78125 -2.40625 C 2.539062 -2.394531 2.335938 -2.382812 2.171875 -2.375 Z M 2.171875 -2.375 "/></g></g><g style="fill:#000000;fill-opacity:1;"><g transform="translate(80.289868, 13.481619)"><path style="stroke:none" d="M 8 -8.265625 L 8.328125 -5.796875 L 7.453125 -5.71875 L 6.890625 -7.328125 C 6.796875 -7.347656 6.695312 -7.359375 6.59375 -7.359375 C 6.5 -7.367188 6.390625 -7.375 6.265625 -7.375 L 5.796875 -7.375 C 5.710938 -7.375 5.613281 -7.375 5.5 -7.375 C 5.394531 -7.375 5.316406 -7.363281 5.265625 -7.34375 C 5.265625 -7.289062 5.257812 -7.117188 5.25 -6.828125 C 5.25 -6.535156 5.242188 -6.1875 5.234375 -5.78125 C 5.234375 -5.382812 5.234375 -4.984375 5.234375 -4.578125 L 5.234375 -3.28125 C 5.234375 -2.757812 5.238281 -2.289062 5.25 -1.875 C 5.257812 -1.457031 5.269531 -1.140625 5.28125 -0.921875 L 6.5 -0.71875 L 6.453125 0 L 2.109375 0 L 2.0625 -0.71875 L 3.28125 -0.921875 C 3.289062 -1.140625 3.300781 -1.457031 3.3125 -1.875 C 3.320312 -2.289062 3.328125 -2.757812 3.328125 -3.28125 L 3.328125 -4.578125 C 3.328125 -4.984375 3.320312 -5.382812 3.3125 -5.78125 C 3.3125 -6.1875 3.3125 -6.535156 3.3125 -6.828125 C 3.3125 -7.117188 3.304688 -7.289062 3.296875 -7.34375 C 3.242188 -7.363281 3.160156 -7.375 3.046875 -7.375 C 2.941406 -7.375 2.847656 -7.375 2.765625 -7.375 L 2.28125 -7.375 C 2.164062 -7.375 2.050781 -7.367188 1.9375 -7.359375 C 1.820312 -7.359375 1.71875 -7.347656 1.625 -7.328125 L 1.09375 -5.703125 L 0.21875 -5.78125 L 0.515625 -8.265625 C 0.609375 -8.265625 0.738281 -8.257812 0.90625 -8.25 C 1.082031 -8.238281 1.265625 -8.226562 1.453125 -8.21875 C 1.648438 -8.207031 1.835938 -8.203125 2.015625 -8.203125 C 2.203125 -8.203125 2.359375 -8.203125 2.484375 -8.203125 L 6.03125 -8.203125 C 6.164062 -8.203125 6.316406 -8.203125 6.484375 -8.203125 C 6.660156 -8.203125 6.847656 -8.207031 7.046875 -8.21875 C 7.242188 -8.226562 7.425781 -8.238281 7.59375 -8.25 C 7.757812 -8.257812 7.894531 -8.265625 8 -8.265625 Z M 8 -8.265625 "/></g></g><g style="fill:#000000;fill-opacity:1;"><g transform="translate(100.296316, 13.481619)"><path style="stroke:none" d="M 0.53125 0 L 0.484375 -0.703125 L 1.375 -0.921875 C 1.382812 -0.960938 1.394531 -1.082031 1.40625 -1.28125 C 1.425781 -1.476562 1.441406 -1.734375 1.453125 -2.046875 C 1.460938 -2.359375 1.46875 -2.703125 1.46875 -3.078125 L 1.46875 -5.109375 C 1.46875 -5.503906 1.460938 -5.851562 1.453125 -6.15625 C 1.441406 -6.46875 1.425781 -6.722656 1.40625 -6.921875 C 1.394531 -7.128906 1.382812 -7.25 1.375 -7.28125 L 0.484375 -7.5 L 0.53125 -8.203125 L 4.28125 -8.203125 L 4.328125 -7.5 L 3.4375 -7.28125 C 3.414062 -7.238281 3.394531 -7.117188 3.375 -6.921875 C 3.363281 -6.722656 3.351562 -6.46875 3.34375 -6.15625 C 3.34375 -5.84375 3.34375 -5.492188 3.34375 -5.109375 L 3.34375 -3.078125 C 3.34375 -2.710938 3.34375 -2.375 3.34375 -2.0625 C 3.351562 -1.757812 3.363281 -1.503906 3.375 -1.296875 C 3.394531 -1.097656 3.414062 -0.972656 3.4375 -0.921875 L 4.328125 -0.703125 L 4.28125 0 Z M 0.53125 0 "/></g></g><g style="fill:#000000;fill-opacity:1;"><g transform="translate(116.56052, 13.481619)"><path style="stroke:none" d="M 3.875 0.046875 L 0.640625 -7.28125 L -0.078125 -7.53125 L -0.046875 -8.203125 L 3.625 -8.203125 L 3.671875 -7.5 L 2.8125 -7.28125 L 5.109375 -1.859375 L 4.546875 -1.859375 L 6.65625 -7.28125 L 5.6875 -7.5 L 5.71875 -8.203125 L 8.59375 -8.203125 L 8.640625 -7.53125 L 7.921875 -7.28125 L 4.625 0.046875 Z M 3.875 0.046875 "/></g></g><g style="fill:#000000;fill-opacity:1;"><g transform="translate(136.580931, 13.481619)"><path style="stroke:none" d="M 0.53125 0 L 0.484375 -0.703125 L 1.375 -0.921875 C 1.382812 -0.960938 1.394531 -1.082031 1.40625 -1.28125 C 1.425781 -1.476562 1.441406 -1.734375 1.453125 -2.046875 C 1.460938 -2.359375 1.46875 -2.703125 1.46875 -3.078125 L 1.46875 -5.109375 C 1.46875 -5.503906 1.460938 -5.851562 1.453125 -6.15625 C 1.441406 -6.46875 1.425781 -6.722656 1.40625 -6.921875 C 1.394531 -7.128906 1.382812 -7.25 1.375 -7.28125 L 0.484375 -7.5 L 0.53125 -8.203125 L 4.28125 -8.203125 L 4.328125 -7.5 L 3.4375 -7.28125 C 3.414062 -7.238281 3.394531 -7.117188 3.375 -6.921875 C 3.363281 -6.722656 3.351562 -6.46875 3.34375 -6.15625 C 3.34375 -5.84375 3.34375 -5.492188 3.34375 -5.109375 L 3.34375 -3.078125 C 3.34375 -2.710938 3.34375 -2.375 3.34375 -2.0625 C 3.351562 -1.757812 3.363281 -1.503906 3.375 -1.296875 C 3.394531 -1.097656 3.414062 -0.972656 3.4375 -0.921875 L 4.328125 -0.703125 L 4.28125 0 Z M 0.53125 0 "/></g></g><g style="fill:#000000;fill-opacity:1;"><g transform="translate(152.845135, 13.481619)"><path style="stroke:none" d="M 8 -8.265625 L 8.328125 -5.796875 L 7.453125 -5.71875 L 6.890625 -7.328125 C 6.796875 -7.347656 6.695312 -7.359375 6.59375 -7.359375 C 6.5 -7.367188 6.390625 -7.375 6.265625 -7.375 L 5.796875 -7.375 C 5.710938 -7.375 5.613281 -7.375 5.5 -7.375 C 5.394531 -7.375 5.316406 -7.363281 5.265625 -7.34375 C 5.265625 -7.289062 5.257812 -7.117188 5.25 -6.828125 C 5.25 -6.535156 5.242188 -6.1875 5.234375 -5.78125 C 5.234375 -5.382812 5.234375 -4.984375 5.234375 -4.578125 L 5.234375 -3.28125 C 5.234375 -2.757812 5.238281 -2.289062 5.25 -1.875 C 5.257812 -1.457031 5.269531 -1.140625 5.28125 -0.921875 L 6.5 -0.71875 L 6.453125 0 L 2.109375 0 L 2.0625 -0.71875 L 3.28125 -0.921875 C 3.289062 -1.140625 3.300781 -1.457031 3.3125 -1.875 C 3.320312 -2.289062 3.328125 -2.757812 3.328125 -3.28125 L 3.328125 -4.578125 C 3.328125 -4.984375 3.320312 -5.382812 3.3125 -5.78125 C 3.3125 -6.1875 3.3125 -6.535156 3.3125 -6.828125 C 3.3125 -7.117188 3.304688 -7.289062 3.296875 -7.34375 C 3.242188 -7.363281 3.160156 -7.375 3.046875 -7.375 C 2.941406 -7.375 2.847656 -7.375 2.765625 -7.375 L 2.28125 -7.375 C 2.164062 -7.375 2.050781 -7.367188 1.9375 -7.359375 C 1.820312 -7.359375 1.71875 -7.347656 1.625 -7.328125 L 1.09375 -5.703125 L 0.21875 -5.78125 L 0.515625 -8.265625 C 0.609375 -8.265625 0.738281 -8.257812 0.90625 -8.25 C 1.082031 -8.238281 1.265625 -8.226562 1.453125 -8.21875 C 1.648438 -8.207031 1.835938 -8.203125 2.015625 -8.203125 C 2.203125 -8.203125 2.359375 -8.203125 2.484375 -8.203125 L 6.03125 -8.203125 C 6.164062 -8.203125 6.316406 -8.203125 6.484375 -8.203125 C 6.660156 -8.203125 6.847656 -8.207031 7.046875 -8.21875 C 7.242188 -8.226562 7.425781 -8.238281 7.59375 -8.25 C 7.757812 -8.257812 7.894531 -8.265625 8 -8.265625 Z M 8 -8.265625 "/></g></g><g style="fill:#000000;fill-opacity:1;"><g transform="translate(172.851582, 13.481619)"><path style="stroke:none" d="M 7.375 -7.28125 L 4.40625 -2.5625 L 5.015625 -3.953125 L 5.015625 -2.5625 C 5.015625 -2.382812 5.015625 -2.207031 5.015625 -2.03125 C 5.023438 -1.851562 5.03125 -1.6875 5.03125 -1.53125 C 5.039062 -1.375 5.050781 -1.238281 5.0625 -1.125 C 5.070312 -1.019531 5.082031 -0.953125 5.09375 -0.921875 L 6.078125 -0.71875 L 6.03125 0 L 2.140625 0 L 2.09375 -0.71875 L 3.078125 -0.921875 C 3.078125 -0.953125 3.082031 -1.019531 3.09375 -1.125 C 3.101562 -1.238281 3.113281 -1.375 3.125 -1.53125 C 3.132812 -1.6875 3.140625 -1.851562 3.140625 -2.03125 C 3.140625 -2.207031 3.140625 -2.382812 3.140625 -2.5625 L 3.140625 -3.953125 L 3.609375 -2.5625 L 0.8125 -7.28125 L 0.09375 -7.5 L 0.140625 -8.203125 L 3.828125 -8.203125 L 3.875 -7.5 L 2.984375 -7.28125 L 4.765625 -4.21875 L 4.421875 -4.21875 L 6.203125 -7.28125 L 5.21875 -7.5 L 5.265625 -8.203125 L 8.046875 -8.203125 L 8.078125 -7.5 Z M 7.375 -7.28125 "/></g></g></g></g></g></svg>